<?xml version="1.0" encoding="utf-8"?>
<!-- Generator: Adobe Illustrator 24.0.1, SVG Export Plug-In . SVG Version: 6.00 Build 0)  -->
<svg version="1.1" xmlns="http://www.w3.org/2000/svg" xmlns:xlink="http://www.w3.org/1999/xlink" x="0px" y="0px"
	 viewBox="0 0 587 174" style="enable-background:new 0 0 587 174;" xml:space="preserve">
<style type="text/css">
	.st0{fill:#F79564;}
	.st1{fill:#FFFFFF;}
</style>
<rect x="387.7" y="157.9" class="st0" width="79" height="13.1"/>
<polyline class="st1" points="539.2,81.1 513.1,118.4 487,81.1 469.1,81.1 505.2,132.3 505.2,171.1 521,171.1 521,132.3 521,132.3 
	557.1,81.1 539.2,81.1 "/>
<path class="st1" d="M65.9,124.4l-1.2-0.9l1.1-1.1c4.3-4.5,6.7-10.3,6.7-16.2c0-13.8-12.7-25-28.3-25H1.9v89.9h44.6
	c16.5,0,30-11.9,30-26.5C76.5,136.8,72.6,129.4,65.9,124.4 M17.6,94.3h26.5c7.4,0,13.3,5.3,13.3,11.9c0,6.6-6,11.9-13.3,11.9H17.6
	C17.6,118.1,17.6,94.3,17.6,94.3z M46.5,157.9H17.6v-26.7h28.9c8.3,0,15,6,15,13.4C61.5,151.9,54.8,157.9,46.5,157.9"/>
<polyline class="st1" points="338.8,141.1 312.8,81.1 295.5,81.1 335.2,171.1 342.4,171.1 382.1,81.1 364.8,81.1 338.8,141.1 "/>
<path class="st1" d="M139.1,79.3c-25.8,0-46.8,20.9-46.8,46.8c0,25.8,20.9,46.8,46.8,46.8c25.8,0,46.8-20.9,46.8-46.8
	C185.9,100.3,165,79.3,139.1,79.3 M139.1,157.5c-17.3,0-31.4-14.1-31.4-31.4s14.1-31.4,31.4-31.4s31.4,14.1,31.4,31.4
	S156.4,157.5,139.1,157.5z"/>
<polyline class="st1" points="263.5,139.1 212.4,81.1 204.6,81.1 204.6,171.1 220.3,171.1 220.3,113.1 271.3,171.1 279.2,171.1 
	279.2,81.1 263.5,81.1 263.5,139.1 "/>
<path class="st1" d="M427.2,79.3c-17.3,0-31.4,14.1-31.4,31.4s14.1,31.4,31.4,31.4s31.4-14.1,31.4-31.4
	C458.6,93.4,444.5,79.3,427.2,79.3 M427.2,128.8c-10,0-18.1-8.1-18.1-18.1s8.1-18.1,18.1-18.1s18.1,8.1,18.1,18.1
	S437.2,128.8,427.2,128.8z"/>
<polyline class="st1" points="87,20.7 87,51.2 78.6,51.2 78.6,6.2 78.6,6.2 78.6,6.2 88,6.2 101.8,31.1 115.7,6.2 125.1,6.2 
	125.1,6.2 125.1,6.2 125.1,51.2 116.7,51.2 116.7,20.7 104.8,42.5 98.8,42.5 87,20.7 "/>
<polyline class="st1" points="445.6,6.2 445.6,13.9 458.8,13.9 458.8,51.2 467.2,51.2 467.2,13.9 480.5,13.9 480.5,6.2 445.6,6.2 
	"/>
<polyline class="st1" points="397,6.2 397,13.9 410.3,13.9 410.3,51.2 418.7,51.2 418.7,13.9 431.9,13.9 431.9,6.2 397,6.2 "/>
<rect x="313.4" y="6.2" class="st1" width="8.4" height="45"/>
<path class="st1" d="M210.1,32.9h6.8l12.6,18.2h9.6l-12.7-18.4c7.2-1,12.7-6.5,12.7-13.2l0,0c0-7.4-6.8-13.4-15.1-13.4h-22.3v45h8.4
	V32.9 M210.1,13.3H224c3.9,0,7.1,2.8,7.1,6.3l0,0c0,3.5-3.2,6.3-7.1,6.3h-13.9V13.3z"/>
<path class="st1" d="M164,21.2l6.5,14.1h-13.1L164,21.2 M161.9,6.2l-20.8,45h9l4-8.6h19.8l4,8.6h9l-20.8-45H161.9z"/>
<path class="st1" d="M279.2,6.2h-22.3v45h8.4V33h6.8l12.6,18.2h9.6l-12.7-18.4c7.2-1,12.7-6.5,12.7-13.2l0,0
	C294.3,12.2,287.6,6.2,279.2,6.2 M286.3,19.6L286.3,19.6c0,3.5-3.2,6.3-7.1,6.3h-13.9V13.3h13.9C283.1,13.3,286.3,16.1,286.3,19.6
	L286.3,19.6z"/>
<path class="st1" d="M362.1,5.3c-12.9,0-23.4,10.5-23.4,23.4s10.5,23.4,23.4,23.4s23.4-10.5,23.4-23.4S375,5.3,362.1,5.3
	 M362.1,43.7c-8.3,0-15-6.7-15-15s6.7-15,15-15s15,6.7,15,15C377.1,36.9,370.3,43.7,362.1,43.7z"/>
<polyline class="st1" points="566.7,82.4 563.2,82.4 563.2,81 571.9,81 571.9,82.4 568.3,82.4 568.3,92.3 566.7,92.3 566.7,82.4 "/>
<path class="st1" d="M574.7,92.3h-1.4V81h2.2l2.8,8.7c0.1,0.4,0.2,0.7,0.3,0.9c0.1-0.3,0.2-0.6,0.3-0.9l2.9-8.7h2.2v11.3h-1.5v-9.7
	c-0.1,0.4-0.2,0.7-0.3,1l-2.9,8.7h-1.5l-2.9-8.7c-0.1-0.3-0.2-0.6-0.3-1v9.7"/>
</svg>
